<svg xmlns="http://www.w3.org/2000/svg" viewBox="0 0 96.4 20"><path fill-rule="evenodd" d="M8 0C3.6 0 0 3.6 0 8c0 2 .8 4 2.2 5.5L13.5 2.2C12 .8 10 0 8 0zm18.4 0l-10 20h20l-10-20zm20 0c-5.5 0-10 4.5-10 10 0 2.4.8 4.5 2.2 6.2l14-14C51 .7 49 0 46.6 0zM64 0c-2.2 0-4 1.8-4 4h16V0H64zm16.4 0v4h12v16h4V4c0-2.2-1.8-4-4-4h-12zm-68 6.5L1 17.8C2.4 19.2 4.3 20 6.4 20c4.5 0 8-3.6 8-8 0-2-.8-4-2-5.5zM60 8v4h13.6V8H60zm22.4 0v4h7.8V8h-7.8zM48 10l-7.8 7.8c1.7 1.4 4 2.2 6.2 2.2 5.5 0 10-4.5 10-10H48zm12 6c0 2.2 1.8 4 4 4h12v-4H60z"/></svg>